<mxfile host="app.diagrams.net" agent="Mozilla/5.0 (Windows NT 10.0; Win64; x64) AppleWebKit/537.36 (KHTML, like Gecko) Chrome/137.0.0.0 Safari/537.36" version="27.1.6">
  <diagram id="C5RBs43oDa-KdzZeNtuy" name="Page-1">
    <mxGraphModel dx="786" dy="425" grid="1" gridSize="10" guides="1" tooltips="1" connect="1" arrows="1" fold="1" page="1" pageScale="1" pageWidth="827" pageHeight="1169" math="0" shadow="0">
      <root>
        <mxCell id="WIyWlLk6GJQsqaUBKTNV-0" />
        <mxCell id="WIyWlLk6GJQsqaUBKTNV-1" parent="WIyWlLk6GJQsqaUBKTNV-0" />
        <mxCell id="jBnJo6HcLtbD6m5WuQMD-2" style="edgeStyle=orthogonalEdgeStyle;rounded=0;orthogonalLoop=1;jettySize=auto;html=1;exitX=1;exitY=0.5;exitDx=0;exitDy=0;entryX=0;entryY=0.5;entryDx=0;entryDy=0;" parent="WIyWlLk6GJQsqaUBKTNV-1" source="jBnJo6HcLtbD6m5WuQMD-0" target="jBnJo6HcLtbD6m5WuQMD-1" edge="1">
          <mxGeometry relative="1" as="geometry" />
        </mxCell>
        <mxCell id="FSBiHV9G0nRDCk4JQ_9k-3" value="1" style="edgeLabel;html=1;align=center;verticalAlign=middle;resizable=0;points=[];" vertex="1" connectable="0" parent="jBnJo6HcLtbD6m5WuQMD-2">
          <mxGeometry x="0.0933" y="3" relative="1" as="geometry">
            <mxPoint as="offset" />
          </mxGeometry>
        </mxCell>
        <mxCell id="jBnJo6HcLtbD6m5WuQMD-6" style="edgeStyle=orthogonalEdgeStyle;rounded=0;orthogonalLoop=1;jettySize=auto;html=1;exitX=0.5;exitY=1;exitDx=0;exitDy=0;entryX=0.5;entryY=0;entryDx=0;entryDy=0;" parent="WIyWlLk6GJQsqaUBKTNV-1" source="jBnJo6HcLtbD6m5WuQMD-0" target="jBnJo6HcLtbD6m5WuQMD-5" edge="1">
          <mxGeometry relative="1" as="geometry" />
        </mxCell>
        <mxCell id="FSBiHV9G0nRDCk4JQ_9k-4" value="2" style="edgeLabel;html=1;align=center;verticalAlign=middle;resizable=0;points=[];" vertex="1" connectable="0" parent="jBnJo6HcLtbD6m5WuQMD-6">
          <mxGeometry x="-0.1704" y="-1" relative="1" as="geometry">
            <mxPoint as="offset" />
          </mxGeometry>
        </mxCell>
        <mxCell id="FSBiHV9G0nRDCk4JQ_9k-5" style="edgeStyle=orthogonalEdgeStyle;rounded=0;orthogonalLoop=1;jettySize=auto;html=1;exitX=0;exitY=0.5;exitDx=0;exitDy=0;entryX=0;entryY=0.5;entryDx=0;entryDy=0;" edge="1" parent="WIyWlLk6GJQsqaUBKTNV-1" source="jBnJo6HcLtbD6m5WuQMD-0" target="FSBiHV9G0nRDCk4JQ_9k-2">
          <mxGeometry relative="1" as="geometry" />
        </mxCell>
        <mxCell id="FSBiHV9G0nRDCk4JQ_9k-6" value="3" style="edgeLabel;html=1;align=center;verticalAlign=middle;resizable=0;points=[];" vertex="1" connectable="0" parent="FSBiHV9G0nRDCk4JQ_9k-5">
          <mxGeometry x="0.0046" y="-2" relative="1" as="geometry">
            <mxPoint as="offset" />
          </mxGeometry>
        </mxCell>
        <mxCell id="jBnJo6HcLtbD6m5WuQMD-0" value="原始股份" style="rounded=1;whiteSpace=wrap;html=1;" parent="WIyWlLk6GJQsqaUBKTNV-1" vertex="1">
          <mxGeometry x="100" y="200" width="120" height="60" as="geometry" />
        </mxCell>
        <mxCell id="FSBiHV9G0nRDCk4JQ_9k-1" style="edgeStyle=orthogonalEdgeStyle;rounded=0;orthogonalLoop=1;jettySize=auto;html=1;exitX=1;exitY=0.5;exitDx=0;exitDy=0;" edge="1" parent="WIyWlLk6GJQsqaUBKTNV-1" source="jBnJo6HcLtbD6m5WuQMD-1" target="FSBiHV9G0nRDCk4JQ_9k-0">
          <mxGeometry relative="1" as="geometry" />
        </mxCell>
        <mxCell id="jBnJo6HcLtbD6m5WuQMD-1" value="第一次质押" style="shape=process;whiteSpace=wrap;html=1;backgroundOutline=1;" parent="WIyWlLk6GJQsqaUBKTNV-1" vertex="1">
          <mxGeometry x="320" y="200" width="120" height="60" as="geometry" />
        </mxCell>
        <mxCell id="jBnJo6HcLtbD6m5WuQMD-4" value="&lt;h1 style=&quot;text-align: center; margin-top: 0px;&quot;&gt;质押，冻结库写入冻结明细&lt;/h1&gt;&lt;p&gt;&lt;font&gt;&lt;font style=&quot;color: rgb(255, 0, 0);&quot;&gt;存管类别（ZY）&lt;/font&gt;，&lt;/font&gt;冻结数量，冻结红利、&lt;font style=&quot;color: rgb(255, 0, 0);&quot;&gt;冻结序号（1）&lt;/font&gt;、再冻结序号（null）、可售标志、其他&lt;/p&gt;" style="text;html=1;whiteSpace=wrap;overflow=hidden;rounded=0;" parent="WIyWlLk6GJQsqaUBKTNV-1" vertex="1">
          <mxGeometry x="660" y="180" width="310" height="90" as="geometry" />
        </mxCell>
        <mxCell id="jBnJo6HcLtbD6m5WuQMD-8" style="edgeStyle=orthogonalEdgeStyle;rounded=0;orthogonalLoop=1;jettySize=auto;html=1;exitX=1;exitY=0.5;exitDx=0;exitDy=0;entryX=0;entryY=0.5;entryDx=0;entryDy=0;" parent="WIyWlLk6GJQsqaUBKTNV-1" source="jBnJo6HcLtbD6m5WuQMD-5" target="jBnJo6HcLtbD6m5WuQMD-7" edge="1">
          <mxGeometry relative="1" as="geometry">
            <mxPoint x="260" y="380" as="targetPoint" />
          </mxGeometry>
        </mxCell>
        <mxCell id="jBnJo6HcLtbD6m5WuQMD-5" value="第一次司法冻结" style="shape=process;whiteSpace=wrap;html=1;backgroundOutline=1;" parent="WIyWlLk6GJQsqaUBKTNV-1" vertex="1">
          <mxGeometry x="100" y="350" width="120" height="60" as="geometry" />
        </mxCell>
        <mxCell id="jBnJo6HcLtbD6m5WuQMD-10" style="edgeStyle=orthogonalEdgeStyle;rounded=0;orthogonalLoop=1;jettySize=auto;html=1;exitX=0.5;exitY=0;exitDx=0;exitDy=0;entryX=0.5;entryY=0;entryDx=0;entryDy=0;" parent="WIyWlLk6GJQsqaUBKTNV-1" source="jBnJo6HcLtbD6m5WuQMD-7" target="jBnJo6HcLtbD6m5WuQMD-9" edge="1">
          <mxGeometry relative="1" as="geometry" />
        </mxCell>
        <mxCell id="jBnJo6HcLtbD6m5WuQMD-11" value="无瑕疵（即没有被冻结过）" style="edgeLabel;html=1;align=center;verticalAlign=middle;resizable=0;points=[];" parent="jBnJo6HcLtbD6m5WuQMD-10" vertex="1" connectable="0">
          <mxGeometry x="-0.0316" y="1" relative="1" as="geometry">
            <mxPoint as="offset" />
          </mxGeometry>
        </mxCell>
        <mxCell id="jBnJo6HcLtbD6m5WuQMD-14" style="edgeStyle=orthogonalEdgeStyle;rounded=0;orthogonalLoop=1;jettySize=auto;html=1;exitX=0.5;exitY=1;exitDx=0;exitDy=0;entryX=0;entryY=0.5;entryDx=0;entryDy=0;" parent="WIyWlLk6GJQsqaUBKTNV-1" source="jBnJo6HcLtbD6m5WuQMD-7" target="jBnJo6HcLtbD6m5WuQMD-13" edge="1">
          <mxGeometry relative="1" as="geometry" />
        </mxCell>
        <mxCell id="jBnJo6HcLtbD6m5WuQMD-16" value="有瑕疵（即被冻结了）" style="edgeLabel;html=1;align=center;verticalAlign=middle;resizable=0;points=[];" parent="jBnJo6HcLtbD6m5WuQMD-14" vertex="1" connectable="0">
          <mxGeometry x="-0.0162" y="-3" relative="1" as="geometry">
            <mxPoint as="offset" />
          </mxGeometry>
        </mxCell>
        <mxCell id="jBnJo6HcLtbD6m5WuQMD-7" value="判断股份是否有瑕疵" style="rhombus;whiteSpace=wrap;html=1;" parent="WIyWlLk6GJQsqaUBKTNV-1" vertex="1">
          <mxGeometry x="270" y="340" width="150" height="80" as="geometry" />
        </mxCell>
        <mxCell id="jBnJo6HcLtbD6m5WuQMD-9" value="新增冻结明细2" style="rounded=0;whiteSpace=wrap;html=1;" parent="WIyWlLk6GJQsqaUBKTNV-1" vertex="1">
          <mxGeometry x="500" y="310" width="120" height="60" as="geometry" />
        </mxCell>
        <mxCell id="jBnJo6HcLtbD6m5WuQMD-12" value="&lt;h1 style=&quot;text-align: center; margin-top: 0px;&quot;&gt;司法冻结，冻结库写入冻结明细&lt;/h1&gt;&lt;p&gt;&lt;font style=&quot;color: rgb(255, 0, 0);&quot;&gt;存管类别（SF）&lt;/font&gt;，冻结数量，冻结红利、&lt;font style=&quot;color: rgb(255, 0, 0);&quot;&gt;冻结序号（2）&lt;/font&gt;、再冻结序号（null）、可售标志、其他&lt;/p&gt;" style="text;html=1;whiteSpace=wrap;overflow=hidden;rounded=0;" parent="WIyWlLk6GJQsqaUBKTNV-1" vertex="1">
          <mxGeometry x="630" y="290" width="420" height="90" as="geometry" />
        </mxCell>
        <mxCell id="jBnJo6HcLtbD6m5WuQMD-13" value="修改冻结明细1" style="rounded=0;whiteSpace=wrap;html=1;" parent="WIyWlLk6GJQsqaUBKTNV-1" vertex="1">
          <mxGeometry x="500" y="420" width="120" height="60" as="geometry" />
        </mxCell>
        <mxCell id="jBnJo6HcLtbD6m5WuQMD-17" value="&lt;h1 style=&quot;text-align: center; margin-top: 0px;&quot;&gt;司法再冻结/司法冻结质押，冻结库修改冻结明细&lt;/h1&gt;&lt;p&gt;存管类别（ZY），冻结数量，冻结红利、&lt;font style=&quot;color: rgb(255, 0, 0);&quot;&gt;冻结序号（1）&lt;/font&gt;、&lt;font style=&quot;color: rgb(255, 0, 0);&quot;&gt;再冻结序号（2）&lt;/font&gt;、可售标志、其他&lt;/p&gt;" style="text;html=1;whiteSpace=wrap;overflow=hidden;rounded=0;" parent="WIyWlLk6GJQsqaUBKTNV-1" vertex="1">
          <mxGeometry x="630" y="405" width="560" height="90" as="geometry" />
        </mxCell>
        <mxCell id="FSBiHV9G0nRDCk4JQ_9k-0" value="新增冻结明细1" style="rounded=0;whiteSpace=wrap;html=1;" vertex="1" parent="WIyWlLk6GJQsqaUBKTNV-1">
          <mxGeometry x="510" y="200" width="120" height="60" as="geometry" />
        </mxCell>
        <mxCell id="FSBiHV9G0nRDCk4JQ_9k-8" style="edgeStyle=orthogonalEdgeStyle;rounded=0;orthogonalLoop=1;jettySize=auto;html=1;exitX=1;exitY=0.5;exitDx=0;exitDy=0;" edge="1" parent="WIyWlLk6GJQsqaUBKTNV-1" source="FSBiHV9G0nRDCk4JQ_9k-2" target="FSBiHV9G0nRDCk4JQ_9k-7">
          <mxGeometry relative="1" as="geometry" />
        </mxCell>
        <mxCell id="FSBiHV9G0nRDCk4JQ_9k-2" value="第二次司法冻结" style="shape=process;whiteSpace=wrap;html=1;backgroundOutline=1;" vertex="1" parent="WIyWlLk6GJQsqaUBKTNV-1">
          <mxGeometry x="100" y="525" width="120" height="60" as="geometry" />
        </mxCell>
        <mxCell id="FSBiHV9G0nRDCk4JQ_9k-10" style="edgeStyle=orthogonalEdgeStyle;rounded=0;orthogonalLoop=1;jettySize=auto;html=1;exitX=1;exitY=0.5;exitDx=0;exitDy=0;entryX=0;entryY=0.5;entryDx=0;entryDy=0;" edge="1" parent="WIyWlLk6GJQsqaUBKTNV-1" source="FSBiHV9G0nRDCk4JQ_9k-7" target="FSBiHV9G0nRDCk4JQ_9k-9">
          <mxGeometry relative="1" as="geometry" />
        </mxCell>
        <mxCell id="FSBiHV9G0nRDCk4JQ_9k-11" value="需要轮候" style="edgeLabel;html=1;align=center;verticalAlign=middle;resizable=0;points=[];" vertex="1" connectable="0" parent="FSBiHV9G0nRDCk4JQ_9k-10">
          <mxGeometry x="0.155" relative="1" as="geometry">
            <mxPoint as="offset" />
          </mxGeometry>
        </mxCell>
        <mxCell id="FSBiHV9G0nRDCk4JQ_9k-7" value="判断是否轮候" style="rhombus;whiteSpace=wrap;html=1;" vertex="1" parent="WIyWlLk6GJQsqaUBKTNV-1">
          <mxGeometry x="264" y="515" width="150" height="80" as="geometry" />
        </mxCell>
        <mxCell id="FSBiHV9G0nRDCk4JQ_9k-9" value="冻结明细不变&lt;div&gt;新增轮候信息&lt;/div&gt;" style="rounded=0;whiteSpace=wrap;html=1;" vertex="1" parent="WIyWlLk6GJQsqaUBKTNV-1">
          <mxGeometry x="500" y="525" width="120" height="60" as="geometry" />
        </mxCell>
        <mxCell id="FSBiHV9G0nRDCk4JQ_9k-12" value="&lt;h1 style=&quot;text-align: center; margin-top: 0px;&quot;&gt;之前的冻结信息不变，新增轮候信息&lt;/h1&gt;&lt;p&gt;冻结明细1：存管类别（ZY），冻结数量，冻结红利、&lt;font style=&quot;color: rgb(0, 0, 0);&quot;&gt;&lt;font style=&quot;color: rgb(255, 0, 0);&quot;&gt;冻结序号（1）&lt;/font&gt;、&lt;font style=&quot;color: rgb(255, 0, 0);&quot;&gt;再冻结序号（2）&lt;/font&gt;、可售&lt;/font&gt;标志、其他&lt;/p&gt;&lt;p&gt;冻结明细2：&lt;font style=&quot;color: rgb(0, 0, 0);&quot;&gt;&lt;font style=&quot;background-color: transparent; color: rgb(255, 0, 0);&quot;&gt;存管类别（SF）&lt;/font&gt;&lt;span style=&quot;background-color: transparent;&quot;&gt;，冻结数量，冻结红利、&lt;/span&gt;&lt;font style=&quot;background-color: transparent; color: rgb(255, 0, 0);&quot;&gt;冻结序号（2）&lt;/font&gt;&lt;/font&gt;&lt;span style=&quot;background-color: transparent; color: light-dark(rgb(0, 0, 0), rgb(255, 255, 255));&quot;&gt;、再冻结序号（null）、可售标志、其他&lt;/span&gt;&lt;/p&gt;&lt;p&gt;&lt;span style=&quot;background-color: transparent; color: light-dark(rgb(0, 0, 0), rgb(255, 255, 255));&quot;&gt;轮候：业务编号、证券代码、证券账户、轮候数量&lt;/span&gt;&lt;/p&gt;" style="text;html=1;whiteSpace=wrap;overflow=hidden;rounded=0;" vertex="1" parent="WIyWlLk6GJQsqaUBKTNV-1">
          <mxGeometry x="640" y="515" width="560" height="90" as="geometry" />
        </mxCell>
      </root>
    </mxGraphModel>
  </diagram>
</mxfile>
